<svg id="hospital" xmlns="http://www.w3.org/2000/svg" width="24" height="24" viewBox="0 0 24 24">
  <rect id="click_area" width="24" height="24" fill="none"/>
  <g id="icon" transform="translate(-43 -109)">
    <path id="빼기_1" data-name="빼기 1" d="M9882.251,11522h-3.5a.752.752,0,0,1-.752-.752v-2.5a.749.749,0,0,0-.749-.746h-2.5a.747.747,0,0,0-.746.746v2.5a.752.752,0,0,1-.752.752h-3.5a.75.75,0,0,1,0-1.5H9870v-10.751a1,1,0,0,1,1-1h1V11506a1,1,0,0,1,1-1h6a1,1,0,0,1,1,1v2.752h1a1,1,0,0,1,1,1v10.751h.252a.751.751,0,0,1,0,1.5Zm-4.8-7.5a.7.7,0,1,0,0,1.4h1.1a.7.7,0,0,0,0-1.4Zm-4,0a.7.7,0,1,0,0,1.4h1.1a.7.7,0,1,0,0-1.4Zm4-2.5a.7.7,0,1,0,0,1.4h1.1a.7.7,0,0,0,0-1.4Zm-4,0a.7.7,0,1,0,0,1.4h1.1a.7.7,0,1,0,0-1.4Zm1.052-4.2a.5.5,0,0,0-.5.5v.4a.5.5,0,0,0,.5.5h.8v.8a.5.5,0,0,0,.5.5h.4a.5.5,0,0,0,.5-.5v-.8h.8a.5.5,0,0,0,.5-.5v-.4a.5.5,0,0,0-.5-.5h-.8v-.8a.5.5,0,0,0-.5-.5h-.4a.5.5,0,0,0-.5.5v.8Z" transform="translate(-9821 -11392.001)" fill="#fff"/>
  </g>
</svg>
