<svg id="office" xmlns="http://www.w3.org/2000/svg" width="24" height="24" viewBox="0 0 24 24">
  <rect id="click_area" width="24" height="24" fill="none"/>
  <g id="icon" transform="translate(3 4)">
    <path id="패스_62" data-name="패스 62" d="M0,.75A.75.75,0,0,1,.75,0h10.5a.75.75,0,0,1,0,1.5H11V15.25a.75.75,0,0,1-.75.75H8.75A.75.75,0,0,1,8,15.25v-2.5A.75.75,0,0,0,7.25,12H4.75a.75.75,0,0,0-.75.75v2.5a.75.75,0,0,1-.75.75H.75a.75.75,0,0,1,0-1.5H1V1.5H.75A.75.75,0,0,1,0,.75ZM3,3.5A.5.5,0,0,1,3.5,3h1a.5.5,0,0,1,.5.5v1a.5.5,0,0,1-.5.5h-1A.5.5,0,0,1,3,4.5ZM3.5,7a.5.5,0,0,0-.5.5v1a.5.5,0,0,0,.5.5h1A.5.5,0,0,0,5,8.5v-1A.5.5,0,0,0,4.5,7ZM7,3.5A.5.5,0,0,1,7.5,3h1a.5.5,0,0,1,.5.5v1a.5.5,0,0,1-.5.5h-1A.5.5,0,0,1,7,4.5ZM7.5,7a.5.5,0,0,0-.5.5v1a.5.5,0,0,0,.5.5h1A.5.5,0,0,0,9,8.5v-1A.5.5,0,0,0,8.5,7Z" fill="#fff" fill-rule="evenodd"/>
    <path id="패스_63" data-name="패스 63" d="M13.25,4a.75.75,0,0,0-.75.75V15a1,1,0,0,0,1,1h3.75a.75.75,0,0,0,0-1.5H17v-9h.25a.75.75,0,0,0,0-1.5Zm.5,3.5a.5.5,0,0,1,.5-.5h1a.5.5,0,0,1,.5.5v1a.5.5,0,0,1-.5.5h-1a.5.5,0,0,1-.5-.5Zm.5,3.5a.5.5,0,0,0-.5.5v1a.5.5,0,0,0,.5.5h1a.5.5,0,0,0,.5-.5v-1a.5.5,0,0,0-.5-.5Z" fill="#fff" fill-rule="evenodd" opacity="0.6"/>
  </g>
</svg>
