<svg id="standard" xmlns="http://www.w3.org/2000/svg" width="24" height="24" viewBox="0 0 24 24">
  <rect id="click_area" width="24" height="24" fill="none"/>
  <g id="그룹_351" data-name="그룹 351" transform="translate(4 3)">
    <path id="패스_58" data-name="패스 58" d="M16,4.25a2.25,2.25,0,0,0-2.012-2.238A2.25,2.25,0,0,0,11.75,0h-1.5A2.25,2.25,0,0,0,8.012,2.012,2.252,2.252,0,0,0,6.128,3.5H9A2.5,2.5,0,0,1,11.5,6v7h2.25A2.25,2.25,0,0,0,16,10.75ZM10.25,1.5a.75.75,0,0,0-.75.75V2.5h3V2.25a.75.75,0,0,0-.75-.75Z" fill="#fff" fill-rule="evenodd" opacity="0.6"/>
    <path id="패스_59" data-name="패스 59" d="M1,5A1,1,0,0,0,0,6V16a1,1,0,0,0,1,1H9a1,1,0,0,0,1-1V6A1,1,0,0,0,9,5ZM7.874,9.166a.75.75,0,0,0-1.248-.832L4.133,12.073,3.28,11.22A.75.75,0,1,0,2.22,12.28l1.5,1.5a.75.75,0,0,0,1.154-.114Z" fill="#fff" fill-rule="evenodd"/>
  </g>
</svg>
