<svg id="user" xmlns="http://www.w3.org/2000/svg" width="24" height="24" viewBox="0 0 24 24">
  <rect id="click_area" width="24" height="24" fill="none"/>
  <g id="icon" transform="translate(1.963 2)">
    <path id="패스_67" data-name="패스 67" d="M7,8A3,3,0,1,0,4,5,3,3,0,0,0,7,8Z" fill="#fff"/>
    <path id="패스_68" data-name="패스 68" d="M14.5,9A2.5,2.5,0,1,0,12,6.5,2.5,2.5,0,0,0,14.5,9Z" fill="#fff" opacity="0.6"/>
    <path id="패스_69" data-name="패스 69" d="M1.615,16.428a1.224,1.224,0,0,1-.569-1.175,6,6,0,0,1,11.908,0,1.224,1.224,0,0,1-.569,1.175,10.006,10.006,0,0,1-10.769,0Z" fill="#fff"/>
    <path id="패스_70" data-name="패스 70" d="M14.5,16h-.106a2.665,2.665,0,0,0,.048-.932,7.471,7.471,0,0,0-1.588-3.755,4.505,4.505,0,0,1,5.874,2.636.818.818,0,0,1-.361.98A7.465,7.465,0,0,1,14.5,16Z" fill="#fff" opacity="0.6"/>
  </g>
</svg>
