<svg xmlns="http://www.w3.org/2000/svg" xmlns:xlink="http://www.w3.org/1999/xlink" width="789.436" height="697.373" viewBox="0 0 789.436 697.373">
  <defs>
    <clipPath id="clip-path">
      <rect id="사각형_15431" data-name="사각형 15431" width="432.666" height="475.7" fill="none"/>
    </clipPath>
  </defs>
  <g id="illustration" transform="translate(-120.787 -191.46)">
    <g id="의료" transform="translate(120.787 191.46)">
      <g id="그룹_735" data-name="그룹 735" clip-path="url(#clip-path)">
        <path id="패스_35405" data-name="패스 35405" d="M267.159,69.823C208.14,63.105,130.25,40.093,68.915,0V475.7c21.939-5.142,216.331-59.028,216.331-299.662,0-47.727-8.626-82.467-18.088-106.215" transform="translate(147.416)" fill="#ffdca5"/>
        <path id="패스_35406" data-name="패스 35406" d="M18.088,69.823C8.626,93.57,0,128.311,0,176.038,0,416.669,194.392,470.558,216.331,475.7V0C155,40.1,77.109,63.105,18.088,69.823" fill="#ffecb9"/>
        <rect id="사각형_15429" data-name="사각형 15429" width="65.695" height="198.674" transform="translate(183.484 138.513)" fill="#fff"/>
        <rect id="사각형_15430" data-name="사각형 15430" width="198.674" height="65.695" transform="translate(116.997 205.002)" fill="#fff"/>
        <path id="패스_35407" data-name="패스 35407" d="M197.26,424.5l-2.486-.747C163.738,414.39,8.917,357.35,8.917,153.619c0-27.794,3.123-53.2,9.282-75.511l1.457-5.283,5.4-.913c58.368-9.888,119.578-31.391,167.933-59l4.269-2.433,4.266,2.433c48.355,27.608,109.564,49.111,167.929,59l5.4.913,1.457,5.283c6.162,22.306,9.285,47.714,9.285,75.511,0,203.731-154.817,260.771-185.854,270.139ZM33.424,87.921c-4.841,19.557-7.292,41.628-7.292,65.7,0,186.591,137.216,242.047,171.128,252.883,33.912-10.836,171.125-66.292,171.125-252.883,0-24.074-2.452-46.142-7.3-65.7-56.906-10.293-116.031-31.1-163.83-57.656-47.8,26.56-106.924,47.363-163.836,57.656" transform="translate(19.074 22.416)" fill="#fff"/>
      </g>
    </g>
    <g id="사람" transform="translate(-63.883 -9.408)">
      <rect id="사각형_15596" data-name="사각형 15596" width="92.619" height="66.248" transform="matrix(0.423, -0.906, 0.906, 0.423, 718.409, 519.789)" fill="#f1efef" stroke="rgba(0,0,0,0)" stroke-width="1"/>
      <path id="패스_19140" data-name="패스 19140" d="M513.584,1282.887l102.174-265.718,9.157-28.845H818.02l8.713,28.845,77.479,265.718" transform="translate(68.655 -385.938)" fill="none" stroke="#231f20" stroke-linecap="round" stroke-linejoin="round" stroke-width="2"/>
      <path id="패스_35217" data-name="패스 35217" d="M2006,4495.827l51.773,186.616h145.1l41.268,190.453" transform="translate(-1605 -3974.947)" fill="none" stroke="#000" stroke-width="2"/>
      <path id="패스_19090" data-name="패스 19090" d="M769.04,894.747a36.686,36.686,0,0,0,7.8.529c5.469-.409,10.838-1.631,16.24-2.516,4.893-.8,10.03-.051,15.017.054a18.434,18.434,0,0,1,4.647.494c5.238,1.483,9.138,6.775,12.2,10.924a108.128,108.128,0,0,1,9.846,15.981,8.443,8.443,0,0,1,1.125,3.568,3.057,3.057,0,0,1-1.852,3c-1.663.536-3.245-.916-4.415-2.214-4.89-5.424-10.3-10.262-15.644-15.225a6.794,6.794,0,0,0-1.688-1.269,1.666,1.666,0,0,0-1.256-.138,2.049,2.049,0,0,0-.664.467c-2.757,2.588-4.443,6.075-6.958,8.89a32,32,0,0,1-8.958,7.01,36.258,36.258,0,0,1-22.318,3.338L750.38,925.1l1-31.909Z" transform="translate(-66.969 -330.995)" fill="#ffb6a3" stroke="rgba(0,0,0,0)" stroke-width="1"/>
      <path id="패스_19055" data-name="패스 19055" d="M720.831,751.3,752,731.878l16.581,27.053-35.126,20.437Z" transform="translate(-50.044 -239.06)" fill="#ffb6a3" stroke="rgba(0,0,0,0)" stroke-width="1"/>
      <path id="패스_19084" data-name="패스 19084" d="M484.04,736.607a74.361,74.361,0,0,0,8.846,12.136s16.966-6.151,20.155-7.746l29.186-14.6c4.764-2.383,14.6-6.805,20.062-4.109,5.14,2.536,21.16,26.842,22.877,30.353,2.912,5.952-11.365,12.029-11.365,12.029s-80.909,46.072-92.948,44.761c-11.453-1.247-50.946-63.8-54.729-71.378l33.309-41.105c9,4.747,17.279,17.192,24.607,39.66" transform="translate(118.747 -219.053)" fill="#dbd6d4" stroke="rgba(0,0,0,0)" stroke-width="1"/>
      <path id="패스_18843" data-name="패스 18843" d="M764.046,639.934a70.122,70.122,0,0,1-3.143-14.051c-.542-4.7-1.336-10.578-.036-14.961,1.248-4.209,3.753-7.72,8.285-9.4a17.548,17.548,0,0,1,4.089-.945c30.522-3.519,44.141,29.594,53.761,53.834l.825,2.076,2.373-.941-.825-2.076c-9.93-25.022-23.963-59.179-56.424-55.436a20.073,20.073,0,0,0-4.68,1.085c-5.417,2-8.392,6.137-9.857,11.078-1.413,4.766-.629,10.986-.054,15.973a73.066,73.066,0,0,0,3.283,14.641Z" transform="translate(-222.315 -144.146)" fill="#7e4f40"/>
      <path id="패스_19085" data-name="패스 19085" d="M451.72,635.68a163.371,163.371,0,0,0,3.984-22.964c.268-2.657.446-5.462-.695-7.877-1.782-3.77-6.155-5.439-10.15-6.637-2.988-.9-6.108-1.732-9.192-1.265s-6.079,1.879-6.335,4.989a53.875,53.875,0,0,1-8.7,25.146,14.375,14.375,0,0,0,1.915,17.53,16.9,16.9,0,0,0,17.7,3.729c5.943-2.324,9.937-6.458,11.473-12.651" transform="translate(123.12 -167.937)" fill="#ffb6a3" stroke="rgba(0,0,0,0)" stroke-width="1"/>
      <path id="패스_19109" data-name="패스 19109" d="M549.409,771.96c-3.861-7.687-11.881-5.9-19.706-6.97-12.089-1.658-61.407-9.026-61.407-9.026l-28.9-43.8c-5.464-8.783-11.249-17.316-20.057-23.1-8.217-5.392-20.71-8.522-29.614-2.928a23.915,23.915,0,0,0-10.175,14.688c-2.208,9.6-.931,19.763,2.151,29.02,7.575,22.747,22.287,40.417,36.6,59.2,5.042,6.616,10.34,13.45,17.761,17.208,5.953,3.014,12.754,3.775,19.389,4.488,26.686,2.868,47.795,7.1,74.478,4.2,2.691-.293,14.19-.149,16.335-7.41Z" transform="translate(146.058 -211.169)" fill="#fff"/>
      <g id="그룹_794" data-name="그룹 794" transform="translate(273.28 -7.902)">
        <path id="패스_18853" data-name="패스 18853" d="M732.144,998.32c1.4,4.069-.287,8.331-3.757,9.521s-7.415-1.143-8.81-5.212.287-8.331,3.758-9.52,7.415,1.144,8.809,5.211" transform="translate(-391.256 -476.235)" fill="#7e4f40"/>
        <path id="패스_18854" data-name="패스 18854" d="M730.334,1006.5c.976,2.845-.2,5.827-2.628,6.659s-5.186-.8-6.161-3.645.2-5.826,2.628-6.658,5.185.8,6.161,3.644" transform="translate(-389.682 -484.29)" fill="#a47768"/>
        <path id="패스_18855" data-name="패스 18855" d="M730.018,1012.384a3.162,3.162,0,1,1-4.141-2.449,3.424,3.424,0,0,1,4.141,2.449" transform="translate(-389.739 -490.145)" fill="#fff"/>
      </g>
      <path id="패스_19042" data-name="패스 19042" d="M859.966,956.057c4.836-.4,8.608-2.876,4.993-6.839-2.1-2.3-8.308-2.6-11.137-3.026-7.406-1.1-15.759-1.877-23.229-.838-3.131.436-6.82,2.086-6.957,5.244a5.157,5.157,0,0,0,2.935,4.493,13.558,13.558,0,0,0,5.481,1.232,187.96,187.96,0,0,0,27.914-.266" transform="translate(-108.923 -361.047)" fill="#ffb6a3" stroke="rgba(0,0,0,0)" stroke-width="1"/>
      <path id="패스_19043" data-name="패스 19043" d="M915.792,909.13q4.962,4.918,9.484,10.252a24.769,24.769,0,0,1,4.851,7.533c.558,1.588.737,3.552-.417,4.777a3.8,3.8,0,0,1-3.9.743,10.819,10.819,0,0,1-3.5-2.24q-3.451-2.915-6.786-5.964c-3.847-3.518-7.7-7.32-10.019-12.057-1.656-3.375-3.358-11.378,3.084-8.493a25.432,25.432,0,0,1,7.2,5.449" transform="translate(-154.948 -337.107)" fill="#ffb6a3" stroke="rgba(0,0,0,0)" stroke-width="1"/>
      <path id="패스_19056" data-name="패스 19056" d="M799.2,739.174c2.392.728,4.969.066,7.345-.711a76.978,76.978,0,0,0,26.139-14.713,33.273,33.273,0,0,0,7.159,13.473c1.07,1.207,2.93,2.383,4.127,1.3a2.968,2.968,0,0,0,.71-2.247c.027-5.494-2.71-10.574-5.371-15.38a44.928,44.928,0,0,0,7.483,11.231,2.288,2.288,0,0,0,1.4.905c1.2.087,1.708-1.5,1.671-2.7-.188-6.007-3.817-11.288-7.309-16.18a23.121,23.121,0,0,0,7.438,5.373,8.4,8.4,0,0,0,3.362,1.118,3.089,3.089,0,0,0,2.977-1.567c.845-1.851-.948-3.77-2.554-5.019l-11.416-8.88c3.637.254,7.35-.411,10.968-.871,1.638-.208,3.508-.66,4.229-2.146.729-1.5-.178-3.386-1.572-4.3a10.252,10.252,0,0,0-4.79-1.259c-12.519-1.136-25.05.353-37.62.353-1.269,0-25.164,15.907-25.164,15.907Z" transform="translate(-88.751 -218.609)" fill="#ffb6a3" stroke="rgba(0,0,0,0)" stroke-width="1"/>
      <path id="패스_19057" data-name="패스 19057" d="M527.114,1526.2l22.634-65.268-45.448-2.928-19.963,62.507Z" transform="translate(85.406 -654.946)" fill="#ffb6a3" stroke="rgba(0,0,0,0)" stroke-width="1"/>
      <path id="패스_19058" data-name="패스 19058" d="M766.674,1446.022l19.781,67.748,42.9-11.991-18.041-64.063Z" transform="translate(-76.301 -643.325)" fill="#ffb6a3" stroke="rgba(0,0,0,0)" stroke-width="1"/>
      <path id="패스_19074" data-name="패스 19074" d="M771.64,1283.47c-7.211-18.233-21.686-51.9-28.735-70.262l-28.078-73.435c-3.322-8.69-6.681-17.452-11.821-25.249s-12.263-14.66-21.246-17.971c-11.942-4.4-24.815,9.613-31.124,20.551s-7.605,23.951-6.042,36.221c3.6,28.294,19.1,56.6,29.628,82.946,8.441,21.117,9.855,26.953,18.638,47.936Z" transform="translate(-6.035 -447.451)" fill="#a47768" stroke="rgba(0,0,0,0)" stroke-width="1"/>
      <path id="패스_19075" data-name="패스 19075" d="M441.332,1035.663c-15.958-12.335-35.759-14.377-55.025-16.52q-31.753-3.533-63.556-6.542c.434-4.18,1.232-8.359.441-12.539-16.422,2.086-98.856-2.079-99.072-1.665-5.459,10.482-11.224,22.4-13.746,34.511-1.163,3.453-2.033,6.831-2.681,9.663a48.337,48.337,0,0,0,8.8,39.548c17.311,22.319,47.333,17.523,71.53,16.864,24.583-.67,49.172-1.107,73.751-1.893-7.03,16.067-12.862,32.939-19.353,48.234-12.819,30.207-21.514,52.649-33.685,83.124h76.4c8.24-19.467,13.907-32.315,22.439-51.7l33.108-74.987c3.918-8.873,10.64-31.655,10.857-33.852,3.705-11.9.848-23.693-10.21-32.24" transform="translate(244.497 -391.691)" fill="#a47768" stroke="rgba(0,0,0,0)" stroke-width="1"/>
      <path id="패스_19076" data-name="패스 19076" d="M693.316,1210.981l26.151-59.231c3.918-8.873,10.64-31.654,10.857-33.852,3.706-11.9.849-23.693-10.209-32.24" transform="translate(-34.286 -441.686)" fill="none" stroke="#231f20" stroke-linecap="round" stroke-linejoin="round" stroke-width="2"/>
      <path id="패스_19077" data-name="패스 19077" d="M963.7,1015.6H752.724l9.2-28.994,188.907-1.023C953.9,986.6,963.7,1015.6,963.7,1015.6" transform="translate(-68.311 -384.367)" fill="#ff9510" stroke="rgba(0,0,0,0)" stroke-width="1"/>
      <rect id="사각형_15339" data-name="사각형 15339" width="100.453" height="5.571" transform="translate(707.522 595.81)" fill="#231f20"/>
      <path id="패스_19096" data-name="패스 19096" d="M1054.432,767.359l-20.5,93.4h-5.964l20.5-93.4Z" transform="translate(-225.954 -259.382)" fill="#231f20"/>
      <path id="패스_19101" data-name="패스 19101" d="M1026.38,1343.892a8.134,8.134,0,1,1-8.134-8.134,8.134,8.134,0,0,1,8.134,8.134" transform="translate(-192.519 -642.21)" fill="#c8d1f4" stroke="rgba(0,0,0,0)" stroke-width="1"/>
      <path id="패스_19102" data-name="패스 19102" d="M1315.644,893.685a4,4,0,1,1-4-4,4,4,0,0,1,4,4" transform="translate(-367.747 -349.377)" fill="#c8d1f4" stroke="rgba(0,0,0,0)" stroke-width="1"/>
      <path id="패스_19104" data-name="패스 19104" d="M304.958,1357.18a11.835,11.835,0,1,1,0-16.737,11.835,11.835,0,0,1,0,16.737" transform="translate(60.489 -567.682)" fill="#c8d1f4" stroke="rgba(0,0,0,0)" stroke-width="1"/>
      <rect id="사각형_15340" data-name="사각형 15340" width="92.619" height="66.248" transform="matrix(0.363, -0.932, 0.932, 0.363, 706.646, 530.063)" fill="#fff" stroke="rgba(0,0,0,0)" stroke-width="1"/>
      <path id="패스_19112" data-name="패스 19112" d="M797.8,688.915l.423-.436a7.1,7.1,0,0,1,2.269-1.773,6.877,6.877,0,0,1,3.688-.11c5.491.881,10.894,2.228,16.29,3.574,4.041,1.008,8.237,2.023,11.829,4.214,2.948,1.8,5.576,6.143,1.04,7.9-6.113,2.374-13.358-3.2-19.355-1.1a12.785,12.785,0,0,0-4.418,3.052c-2.843,2.7-5.469,5.65-8.7,7.912a28.132,28.132,0,0,1-9.374,3.709c-2.272.553-9.561.676-10.534-2.187a3.309,3.309,0,0,1,.349-2.291c3.863-9.172,9.757-15.527,16.491-22.47" transform="translate(-84.43 -213.012)" fill="#ffb6a3" stroke="rgba(0,0,0,0)" stroke-width="1"/>
      <path id="패스_19131" data-name="패스 19131" d="M903.27,988.667l144.081,18.868-7.231-19.56Z" transform="translate(-154.536 -385.739)" fill="#111011" stroke="rgba(0,0,0,0)" stroke-width="1"/>
      <line id="선_94" data-name="선 94" x1="69.865" y1="2.832" transform="translate(501.687 618.485)" fill="none" stroke="#231f20" stroke-linejoin="round" stroke-width="2"/>
      <line id="선_95" data-name="선 95" x2="24.31" transform="translate(606.085 705.839)" fill="none" stroke="#231f20" stroke-linejoin="round" stroke-width="2"/>
      <path id="패스_19137" data-name="패스 19137" d="M766.572,1570.32l1.186,4.162c-5.037,6.755-8.719,13.658-8.1,21.025l-3.008,7.458a4.166,4.166,0,0,0,3.864,5.725h32.443c3.879-6.144,15.1-5.661,32.072,0h48.867a5.626,5.626,0,0,0,5.479-6.908l-1.1-4.719-3.171-11.106a10.885,10.885,0,0,0-8.116-7.64l-29.191-6.454L829,1559.012a6.377,6.377,0,0,0-9.358-1.287L800.811,1573.5l-28.708-8.631a4.426,4.426,0,0,0-5.531,5.451" transform="translate(-70.384 -711.207)" stroke="rgba(0,0,0,0)" stroke-width="1"/>
      <line id="선_96" data-name="선 96" x2="117.513" transform="translate(690.373 885.856)" fill="none" stroke="#fff" stroke-linecap="round" stroke-linejoin="round" stroke-width="3"/>
      <path id="패스_19138" data-name="패스 19138" d="M455.066,1570.32l1.186,4.162c-5.037,6.755-8.719,13.658-8.1,21.025l-3.007,7.458a4.166,4.166,0,0,0,3.864,5.725h32.444c3.879-6.144,15.1-5.661,32.071,0h48.867a5.626,5.626,0,0,0,5.478-6.908l-1.1-4.719-3.17-11.106a10.885,10.885,0,0,0-8.117-7.64l-29.191-6.454-8.793-12.852a6.377,6.377,0,0,0-9.358-1.287L489.3,1573.5l-28.708-8.631a4.426,4.426,0,0,0-5.531,5.451" transform="translate(108.03 -711.207)" stroke="rgba(0,0,0,0)" stroke-width="1"/>
      <line id="선_97" data-name="선 97" x2="117.513" transform="translate(557.281 885.856)" fill="none" stroke="#fff" stroke-linecap="round" stroke-linejoin="round" stroke-width="3"/>
      <path id="패스_19141" data-name="패스 19141" d="M910.536,903.065c8.1,10.712,16.991,21.906,17.225,27.8" transform="translate(-158.697 -337.107)" fill="none" stroke="#231f20" stroke-linecap="round" stroke-linejoin="round" stroke-width="2"/>
      <line id="선_98" data-name="선 98" x1="13.718" y1="12.669" transform="translate(745.341 577.076)" fill="none" stroke="#231f20" stroke-linecap="round" stroke-linejoin="round" stroke-width="2"/>
      <path id="패스_19142" data-name="패스 19142" d="M839.839,946.456c7.962-1.265,15.84-9.984,23.708-19.514" transform="translate(-118.206 -350.782)" fill="none" stroke="#231f20" stroke-linecap="round" stroke-linejoin="round" stroke-width="2"/>
      <path id="패스_19143" data-name="패스 19143" d="M909.118,902.81c3.344,1.672,6.859,3.7,8.352,7.128a2.852,2.852,0,0,1,0,2.823,2.506,2.506,0,0,1-.959.708c-2.162,1-4.7.339-6.965-.393a101.774,101.774,0,0,1-25.308-11.745,11.485,11.485,0,0,1-4.3-4.243c-1.056-2.2.044-4.7,2.584-4.694,2.648.008,6.086,1.85,8.558,2.731a161.58,161.58,0,0,1,18.035,7.685" transform="translate(-140.946 -330.995)" fill="#ffb6a3" stroke="rgba(0,0,0,0)" stroke-width="1"/>
      <path id="패스_19144" data-name="패스 19144" d="M922.806,927.935c-2.162,1-4.7.339-6.965-.392-8.88-2.862-16.762-5.005-25.308-9.89" transform="translate(-147.241 -345.462)" fill="none" stroke="#231f20" stroke-linecap="round" stroke-linejoin="round" stroke-width="2"/>
      <path id="패스_19139" data-name="패스 19139" d="M961.886,982.44H726.2a1.254,1.254,0,0,0,0,2.5H961.886a1.254,1.254,0,0,0,0-2.5" transform="translate(-52.457 -381.568)" fill="#111011" stroke="rgba(0,0,0,0)" stroke-width="1"/>
      <line id="선_90" data-name="선 90" x1="13.152" y2="6.918" transform="translate(598.48 529.689)" fill="none" stroke="#98918f" stroke-linejoin="round" stroke-width="2"/>
      <path id="패스_35218" data-name="패스 35218" d="M2058.006,4682.37l-47.711,188.255" transform="translate(-1605 -3974.132)" fill="none" stroke="#000" stroke-width="2"/>
      <path id="패스_19086" data-name="패스 19086" d="M477.756,521.859c-.837.516-4.279.2-5.083.771-.585.41-.743,6.349-1.016,7.5a29.8,29.8,0,0,1-3.323,8.722c-3.457,5.549-9.21,8.4-15.665,8.9a44.227,44.227,0,0,1-14.352-1.71,37.825,37.825,0,0,1-10.94-4.465c-9.327-5.829-15.413-15.734-15.413-26.844a31.69,31.69,0,0,1,31.691-31.691c12.3,0,24.886,7.036,27.389,19.76a63.848,63.848,0,0,1,1.008,11.44q.012.609.012,1.219c.008.748.012,1.5.016,2.251a23.44,23.44,0,0,1,5.107.159c.016,0,.032,0,.049.008a2.2,2.2,0,0,1,1.913,1.58,2.516,2.516,0,0,1-1.393,2.4" transform="translate(126.919 -103.042)" fill="#ffb6a3" stroke="rgba(0,0,0,0)" stroke-width="1"/>
      <path id="패스_19091" data-name="패스 19091" d="M438.873,510.967c1.606-.509,3.29-.929,4.42-2.146a8.474,8.474,0,0,0,1.562-3.015q2.25-6.3,4.5-12.594c.279-.76,4.048,2.067,4.437,2.311a21.3,21.3,0,0,0,6.348,2.378,11.266,11.266,0,0,0-2.255-7.371c-11.121-15.9-36.778-14.856-50.874-4.127a16.84,16.84,0,0,0-5.3,5.972,10.3,10.3,0,0,1-.9,1.767,11,11,0,0,1-2.1,1.84c-2.787,2.269-4.063,5.932-4.541,9.494a29.3,29.3,0,0,0,2.595,16.37c2.346,4.93,5.722,8,10.342,10.87,1.707,1.061,3.349,2.233,5.013,3.359a1.354,1.354,0,0,1,.393.349,1.49,1.49,0,0,1,.175.635,13.658,13.658,0,0,0,.455,1.92,2.181,2.181,0,0,0,.549,1.081,1.611,1.611,0,0,0,1.819.009,15.829,15.829,0,0,0,1.515-1.212c.878-.658,2.221-.694,3.249-1.122,1.228-.512,2.438-1.066,3.611-1.7a26.142,26.142,0,0,0,6.377-4.686c3.029-3.108,3.4-7.707,3.7-11.806.261-3.5.328-6.944,4.114-8.31.261-.094.526-.182.794-.267" transform="translate(137.192 -100.147)" stroke="rgba(0,0,0,0)" stroke-width="1"/>
      <path id="패스_19092" data-name="패스 19092" d="M471.807,550.795a12.039,12.039,0,1,1-12.039-12.039,12.039,12.039,0,0,1,12.039,12.039" transform="translate(106.373 -134.69)" fill="#ffb6a3" stroke="rgba(0,0,0,0)" stroke-width="1"/>
      <path id="패스_19093" data-name="패스 19093" d="M454.881,554.89a8.983,8.983,0,0,1,17.967,0" transform="translate(102.277 -138.785)" fill="none" stroke="#231f20" stroke-linecap="round" stroke-linejoin="round" stroke-width="2"/>
      <path id="패스_19094" data-name="패스 19094" d="M371.717,466.058a26.6,26.6,0,0,0-4.468-9.025c-7.469-8.555-26.523-15.776-32.807-2.311-8.334,17.858,13.447,32.436,28.98,34,11.452,1.153,11.466-12.482,8.3-22.664" transform="translate(172.312 -82.283)" stroke="rgba(0,0,0,0)" stroke-width="1"/>
      <path id="패스_19135" data-name="패스 19135" d="M527.414,576.134a14.122,14.122,0,0,0,10.332,2.768" transform="translate(60.734 -156.098)" fill="none" stroke="#231f20" stroke-linecap="round" stroke-linejoin="round" stroke-width="2"/>
      <path id="패스_19136" data-name="패스 19136" d="M478.039,546.151c.343,5.159,1.17,10.022,4.686,13.247" transform="translate(89.013 -138.925)" fill="none" stroke="#231f20" stroke-linecap="round" stroke-linejoin="round" stroke-width="2"/>
      <path id="패스_19088" data-name="패스 19088" d="M361.555,736.813s-.135,142.949-2.3,153.806l-157.373,2.693c-1.753-5.877,46.831-128.945,48.652-134.47,2.512-7.621,4.877-15.289,7.309-22.936,4.733-14.884,9.653-29.736,16.014-44.019,4.632-10.4,9.767-20.758,16.771-29.792,6.784-8.749,12.21-11.242,21.163-16.607l3.593-14.171a4.43,4.43,0,0,1,5.117-3.264l36.615,6.924a4.429,4.429,0,0,1,3.46,5.481l-4.046,15.356a207.386,207.386,0,0,0,11.1,38.086c8.131,13.158,7.959,33.433-6.069,42.912" transform="translate(223.813 -179.551)" fill="#fff"/>
      <g id="그룹_795" data-name="그룹 795" transform="translate(275.148 1.915)">
        <path id="패스_18848" data-name="패스 18848" d="M1097.571,1103.446c-7.2,3.459-12.725,4.241-17.336,2.054-4.562-2.164-8.094-7.21-11.369-15.428l1.688-.67c3.1,7.773,6.354,12.506,10.462,14.455,4.058,1.925,9.087,1.156,15.772-2.054Z" transform="translate(-805.119 -576.277)" fill="#e6eaf4"/>
        <path id="패스_18849" data-name="패스 18849" d="M1065.51,1046.023c7.617-2.421,12.172-5.637,14.028-10.39,1.837-4.7.95-10.8-2.3-19.026l-1.689.67c3.075,7.782,3.948,13.46,2.295,17.7-1.634,4.184-5.823,7.072-12.891,9.318Z" transform="translate(-787.511 -513.12)" fill="#e6eaf4"/>
        <path id="패스_18850" data-name="패스 18850" d="M1093.565,890.338c9.374-2.47,16.178,5.993,19.736,13.849a6.342,6.342,0,0,1,.895,2.737,1.666,1.666,0,0,1-3.135.652c-2.561-7.175-9.441-17.449-18.244-13.874a1.135,1.135,0,0,1-.11.041,8.287,8.287,0,0,0-4.049,3.866c-1.585,2.948-2.651,8.534,1.265,18.4a1.536,1.536,0,0,1-.684,1.821l-.032.021h0l-.034.021h0l-.033.019h0l-.032.018-.005,0,0,0c-.036.019-.072.037-.11.054l0,0-.023.01h0l0,0h0l0,0h-.006l0,0h-.034a1.592,1.592,0,0,1-2.112-.753c-3.485-8.783-3.826-15.816-1.013-20.906a12.018,12.018,0,0,1,7.788-6.011" transform="translate(-823.74 -403.188)" fill="#7e4f40"/>
        <path id="패스_18851" data-name="패스 18851" d="M1169.707,1224.467a1.451,1.451,0,0,1,.917-1.835l2.65-.636c.866-.066.983.36,1.184.888.192.577.333,1-.466,1.488l-2.45,1.014a1.451,1.451,0,0,1-1.835-.918" transform="translate(-895.496 -691.311)" fill="#a47768"/>
        <path id="패스_18852" data-name="패스 18852" d="M1050.463,1171.744a1.451,1.451,0,0,0-1.926-.707l-2.365,1.353c-.676.545-.468.936-.253,1.458.255.552.443.956,1.359.763l2.479-.941a1.451,1.451,0,0,0,.707-1.926" transform="translate(-755.08 -646.988)" fill="#a47768"/>
      </g>
      <line id="선_91" data-name="선 91" x2="44.74" y2="10.326" transform="translate(535.601 465.938)" fill="none" stroke="#98918f" stroke-linejoin="round" stroke-width="2"/>
      <path id="패스_19110" data-name="패스 19110" d="M595.625,773.836c-3.407-.6-7.274-.437-11.1-.961-12.089-1.658-61.407-9.026-61.407-9.026l-28.9-43.8c-5.464-8.783-11.249-17.316-20.057-23.1" transform="translate(91.233 -219.054)" fill="none" stroke="#98918f" stroke-linejoin="round" stroke-width="2"/>
      <path id="패스_19111" data-name="패스 19111" d="M379.55,724.472c-2.208,9.6-.932,19.763,2.151,29.02,7.575,22.747,22.287,40.417,36.6,59.2,3.532,4.635,7.189,9.377,11.615,13.092" transform="translate(146.058 -234.818)" fill="none" stroke="#98918f" stroke-linejoin="round" stroke-width="2"/>
      <line id="선_93" data-name="선 93" x1="6.431" y1="24.726" transform="translate(579.023 476.265)" fill="none" stroke="#98918f" stroke-linejoin="round" stroke-width="2"/>
      <line id="선_92" data-name="선 92" x1="13.802" y2="71.18" transform="translate(522.738 538.374)" fill="none" stroke="#98918f" stroke-linejoin="round" stroke-width="2"/>
      <path id="패스_35496" data-name="패스 35496" d="M764.863,645.861a79.047,79.047,0,0,1-3.542-15.838c-.611-5.3-1.506-11.923-.041-16.864,1.407-4.744,4.231-8.7,9.339-10.591,1.365-.5.579-3.29-.993-2.709-6.105,2.257-9.459,6.918-11.111,12.487-1.593,5.372-.709,12.383-.061,18a82.352,82.352,0,0,0,3.7,16.5Z" transform="translate(-220.999 -154.037)" fill="#7e4f40"/>
      <path id="패스_35286" data-name="패스 35286" d="M288.079,63.959c0,1.141-.609,2.066-1.361,2.066s-1.361-.925-1.361-2.066.609-2.066,1.361-2.066,1.361.925,1.361,2.066" transform="translate(305.235 344.615)"/>
      <path id="패스_35526" data-name="패스 35526" d="M1319.644,895.685a6,6,0,1,1-6-6,6,6,0,0,1,6,6" transform="translate(-608.669 -503.587)" fill="#c8d1f4" stroke="rgba(0,0,0,0)" stroke-width="1"/>
    </g>
    <g id="그래프" transform="matrix(0.966, 0.259, -0.259, 0.966, 753.295, 305.152)">
      <path id="패스_35556" data-name="패스 35556" d="M143.3,93.718H11.1A11.1,11.1,0,0,1,0,82.615V11.1A11.1,11.1,0,0,1,11.1,0H143.3a11.1,11.1,0,0,1,11.1,11.1V82.615a11.1,11.1,0,0,1-11.1,11.1" transform="translate(0 0)" fill="#fff"/>
      <path id="패스_35557" data-name="패스 35557" d="M0,66.225V10.575A10.574,10.574,0,0,1,10.575,0H127.551a10.574,10.574,0,0,1,10.576,10.575V66.226A10.575,10.575,0,0,1,127.551,76.8H10.575A10.575,10.575,0,0,1,0,66.225" transform="translate(7.848 8.138)" fill="#d9d1c4"/>
      <g id="그룹_922" data-name="그룹 922" transform="translate(7.847 8.137)" opacity="0.16">
        <line id="선_129" data-name="선 129" x2="138.127" transform="translate(0 7.542)" fill="none" stroke="#fff" stroke-miterlimit="10" stroke-width="1"/>
        <line id="선_130" data-name="선 130" x2="138.127" transform="translate(0 17.828)" fill="none" stroke="#fff" stroke-miterlimit="10" stroke-width="1"/>
        <line id="선_131" data-name="선 131" x2="138.127" transform="translate(0 28.115)" fill="none" stroke="#fff" stroke-miterlimit="10" stroke-width="1"/>
        <line id="선_132" data-name="선 132" x2="138.127" transform="translate(0 38.4)" fill="none" stroke="#fff" stroke-miterlimit="10" stroke-width="1"/>
        <line id="선_133" data-name="선 133" x2="138.127" transform="translate(0 48.686)" fill="none" stroke="#fff" stroke-miterlimit="10" stroke-width="1"/>
        <line id="선_134" data-name="선 134" x2="138.127" transform="translate(0 58.972)" fill="none" stroke="#fff" stroke-miterlimit="10" stroke-width="1"/>
        <line id="선_135" data-name="선 135" x2="138.127" transform="translate(0 69.258)" fill="none" stroke="#fff" stroke-miterlimit="10" stroke-width="1"/>
        <line id="선_136" data-name="선 136" y2="76.801" transform="translate(10.801 0)" fill="none" stroke="#fff" stroke-miterlimit="10" stroke-width="1"/>
        <line id="선_137" data-name="선 137" y2="76.801" transform="translate(21.394 0)" fill="none" stroke="#fff" stroke-miterlimit="10" stroke-width="1"/>
        <line id="선_138" data-name="선 138" y2="76.801" transform="translate(31.987 0)" fill="none" stroke="#fff" stroke-miterlimit="10" stroke-width="1"/>
        <line id="선_139" data-name="선 139" y2="76.801" transform="translate(42.58 0)" fill="none" stroke="#fff" stroke-miterlimit="10" stroke-width="1"/>
        <line id="선_140" data-name="선 140" y2="76.801" transform="translate(53.173 0)" fill="none" stroke="#fff" stroke-miterlimit="10" stroke-width="1"/>
        <line id="선_141" data-name="선 141" y2="76.801" transform="translate(63.767 0)" fill="none" stroke="#fff" stroke-miterlimit="10" stroke-width="1"/>
        <line id="선_142" data-name="선 142" y2="76.801" transform="translate(74.359 0)" fill="none" stroke="#fff" stroke-miterlimit="10" stroke-width="1"/>
        <line id="선_143" data-name="선 143" y2="76.801" transform="translate(84.953 0)" fill="none" stroke="#fff" stroke-miterlimit="10" stroke-width="1"/>
        <line id="선_144" data-name="선 144" y2="76.801" transform="translate(95.546 0)" fill="none" stroke="#fff" stroke-miterlimit="10" stroke-width="1"/>
        <line id="선_145" data-name="선 145" y2="76.801" transform="translate(106.139 0)" fill="none" stroke="#fff" stroke-miterlimit="10" stroke-width="1"/>
        <line id="선_146" data-name="선 146" y2="76.801" transform="translate(116.732 0)" fill="none" stroke="#fff" stroke-miterlimit="10" stroke-width="1"/>
        <line id="선_147" data-name="선 147" y2="76.801" transform="translate(127.325 0)" fill="none" stroke="#fff" stroke-miterlimit="10" stroke-width="1"/>
      </g>
      <path id="패스_35558" data-name="패스 35558" d="M0,31.076l26.082.025,6.58-14.408,6.9,35.952L50.157,3.211,57.22,43.336l2.728-15.408,1.6,7.7L69.578,0l4.976,55.213,5.617-31.137,4.173,13.964,4.334-19.582L90.764,31.1l28.338.232" transform="translate(17.255 18.931)" fill="none" stroke="#fff" stroke-linecap="round" stroke-linejoin="round" stroke-width="2"/>
    </g>
    <g id="알약" transform="matrix(0.995, -0.105, 0.105, 0.995, 835.558, 410.565)">
      <path id="패스_35559" data-name="패스 35559" d="M14.2,0,3.131,11.069A10.69,10.69,0,1,0,18.249,26.187L29.318,15.118Z" transform="translate(17.757 14.199)" fill="#fff"/>
      <path id="패스_35560" data-name="패스 35560" d="M15.118,29.318,26.187,18.249A10.69,10.69,0,1,0,11.068,3.131L0,14.2Z" transform="translate(31.956 0)" fill="#ef9c68"/>
      <path id="패스_35561" data-name="패스 35561" d="M26.343,0H10.69a10.69,10.69,0,0,0,0,21.381H26.343Z" transform="translate(0 35.483)" fill="#fff"/>
      <path id="패스_35562" data-name="패스 35562" d="M0,21.381H15.653A10.69,10.69,0,0,0,15.653,0H0Z" transform="translate(26.343 35.483)" fill="#ffdca5"/>
    </g>
  </g>
</svg>
