<svg xmlns="http://www.w3.org/2000/svg" xmlns:xlink="http://www.w3.org/1999/xlink" width="659.786" height="574.384" viewBox="0 0 659.786 574.384">
  <defs>
    <clipPath id="clip-path">
      <rect id="사각형_15431" data-name="사각형 15431" width="343.792" height="377.986" fill="none"/>
    </clipPath>
  </defs>
  <g id="illustration" transform="translate(-162.409 -237.221)">
    <g id="의료" transform="translate(162.409 237.221)">
      <g id="그룹_735" data-name="그룹 735" clip-path="url(#clip-path)">
        <path id="패스_35405" data-name="패스 35405" d="M226.437,55.481C179.542,50.143,117.651,31.857,68.915,0V377.986c17.433-4.086,171.895-46.9,171.895-238.108,0-37.923-6.854-65.528-14.372-84.4" transform="translate(102.98)" fill="#ffdca5"/>
        <path id="패스_35406" data-name="패스 35406" d="M14.372,55.481C6.854,74.35,0,101.954,0,139.878,0,331.081,154.462,373.9,171.895,377.986V0C123.158,31.86,61.27,50.143,14.372,55.481" fill="#ffecb9"/>
        <rect id="사각형_15429" data-name="사각형 15429" width="52.201" height="157.864" transform="translate(145.794 110.061)" fill="#fff"/>
        <rect id="사각형_15430" data-name="사각형 15430" width="157.864" height="52.201" transform="translate(92.965 162.893)" fill="#fff"/>
        <path id="패스_35407" data-name="패스 35407" d="M158.572,339.459l-1.975-.594C131.936,331.423,8.917,286.1,8.917,124.216c0-22.085,2.482-42.271,7.376-60l1.157-4.2,4.293-.726c46.379-7.857,95.015-24.943,133.437-46.88l3.392-1.933,3.39,1.933c38.422,21.937,87.059,39.023,133.435,46.88l4.293.726,1.157,4.2c4.9,17.724,7.378,37.913,7.378,60,0,161.882-123.016,207.206-147.677,214.649ZM28.39,72.013c-3.846,15.539-5.794,33.077-5.794,52.2,0,148.264,109.031,192.328,135.977,200.938,26.946-8.61,135.974-52.675,135.974-200.938,0-19.129-1.948-36.664-5.8-52.2C243.533,63.835,196.553,47.3,158.572,26.2,120.589,47.3,73.612,63.835,28.39,72.013" transform="translate(13.325 15.659)" fill="#fff"/>
      </g>
    </g>
    <g id="사람" transform="translate(265.315 339.349)">
      <rect id="사각형_15596" data-name="사각형 15596" width="81.996" height="58.65" transform="matrix(0.423, -0.906, 0.906, 0.423, 330.366, 137.061)" fill="#f1efef" stroke="rgba(0,0,0,0)" stroke-width="1"/>
      <path id="패스_19140" data-name="패스 19140" d="M513.584,1249.1l90.455-235.243,8.107-25.536H783.1l7.714,25.536L859.41,1249.1" transform="translate(-303.77 -778.139)" fill="none" stroke="#231f20" stroke-linecap="round" stroke-linejoin="round" stroke-width="2"/>
      <path id="패스_35217" data-name="패스 35217" d="M2006,4495.826l45.835,165.213H2180.3l36.535,168.609" transform="translate(-1956.639 -4357.8)" fill="none" stroke="#000" stroke-width="2"/>
      <path id="패스_19090" data-name="패스 19090" d="M766.9,894.477a32.481,32.481,0,0,0,6.9.468c4.842-.362,9.6-1.444,14.378-2.227,4.332-.709,8.88-.045,13.295.048a16.321,16.321,0,0,1,4.114.438c4.637,1.313,8.09,6,10.8,9.671a95.718,95.718,0,0,1,8.717,14.148,7.475,7.475,0,0,1,1,3.159,2.707,2.707,0,0,1-1.639,2.654c-1.472.475-2.873-.811-3.908-1.96-4.329-4.8-9.121-9.085-13.85-13.479a6.015,6.015,0,0,0-1.494-1.123,1.474,1.474,0,0,0-1.112-.122,1.816,1.816,0,0,0-.588.414c-2.441,2.291-3.933,5.378-6.16,7.87a28.332,28.332,0,0,1-7.931,6.206,32.1,32.1,0,0,1-19.758,2.955L750.38,921.35l.887-28.25Z" transform="translate(-450.998 -718.495)" fill="#ffb6a3" stroke="rgba(0,0,0,0)" stroke-width="1"/>
      <path id="패스_19055" data-name="패스 19055" d="M720.831,749.068l27.595-17.19,14.68,23.951-31.1,18.093Z" transform="translate(-432.625 -618.695)" fill="#ffb6a3" stroke="rgba(0,0,0,0)" stroke-width="1"/>
      <path id="패스_19084" data-name="패스 19084" d="M477.4,732.058a65.834,65.834,0,0,0,7.831,10.744s15.02-5.445,17.844-6.858l25.839-12.925c4.217-2.11,12.924-6.025,17.761-3.638,4.55,2.245,18.733,23.763,20.254,26.872,2.578,5.269-10.062,10.649-10.062,10.649s-71.63,40.788-82.287,39.627c-10.139-1.1-45.1-56.485-48.452-63.192l29.489-36.391c7.971,4.2,15.3,15.22,21.785,35.111" transform="translate(-249.392 -596.976)" fill="#dbd6d4" stroke="rgba(0,0,0,0)" stroke-width="1"/>
      <path id="패스_18843" data-name="패스 18843" d="M763.308,635.1a62.09,62.09,0,0,1-2.782-12.439c-.48-4.165-1.183-9.365-.032-13.245,1.1-3.726,3.323-6.835,7.335-8.318a15.536,15.536,0,0,1,3.62-.836c27.022-3.116,39.078,26.2,47.6,47.66l.73,1.838,2.1-.833-.73-1.838c-8.791-22.152-21.215-52.392-49.953-49.078a17.77,17.77,0,0,0-4.143.96c-4.8,1.773-7.43,5.433-8.727,9.807-1.251,4.219-.557,9.726-.048,14.141a64.686,64.686,0,0,0,2.906,12.962Z" transform="translate(-589.357 -519.284)" fill="#7e4f40"/>
      <path id="패스_19085" data-name="패스 19085" d="M447.909,631.222a144.635,144.635,0,0,0,3.527-20.33c.237-2.352.395-4.836-.615-6.974-1.577-3.338-5.449-4.816-8.986-5.876-2.646-.793-5.407-1.533-8.138-1.12s-5.382,1.664-5.609,4.417a47.7,47.7,0,0,1-7.7,22.262,12.726,12.726,0,0,0,1.7,15.52,14.959,14.959,0,0,0,15.669,3.3c5.262-2.057,8.8-5.717,10.157-11.2" transform="translate(-244.645 -540.237)" fill="#ffb6a3" stroke="rgba(0,0,0,0)" stroke-width="1"/>
      <path id="패스_19109" data-name="패스 19109" d="M529.8,761.777c-3.418-6.806-10.518-5.22-17.446-6.171-10.7-1.468-54.364-7.991-54.364-7.991l-25.586-38.781c-4.837-7.775-9.959-15.33-17.757-20.448-7.275-4.774-18.335-7.545-26.217-2.592a21.173,21.173,0,0,0-9.008,13c-1.955,8.5-.825,17.5,1.9,25.692,6.706,20.138,19.731,35.782,32.4,52.408,4.463,5.857,9.154,11.907,15.724,15.234,5.27,2.669,11.292,3.342,17.165,3.974,23.626,2.539,42.313,6.282,65.936,3.714,2.383-.259,12.562-.132,14.461-6.56Z" transform="translate(-219.745 -588.417)" fill="#fff"/>
      <g id="그룹_794" data-name="그룹 794" transform="translate(226.521 127.209)">
        <path id="패스_18853" data-name="패스 18853" d="M730.646,997.687c1.235,3.6-.254,7.375-3.326,8.429s-6.564-1.012-7.8-4.614.254-7.375,3.327-8.429,6.564,1.013,7.8,4.613" transform="translate(-719.087 -992.798)" fill="#7e4f40"/>
        <path id="패스_18854" data-name="패스 18854" d="M729.286,1006.054c.864,2.519-.178,5.159-2.326,5.9s-4.591-.708-5.455-3.227.178-5.157,2.327-5.894,4.591.708,5.454,3.226" transform="translate(-717.935 -1001.057)" fill="#a47768"/>
        <path id="패스_18855" data-name="패스 18855" d="M729.314,1012.087a2.8,2.8,0,1,1-3.666-2.168,3.031,3.031,0,0,1,3.666,2.168" transform="translate(-718.294 -1007.061)" fill="#fff"/>
      </g>
      <path id="패스_19042" data-name="패스 19042" d="M855.8,954.773c4.281-.356,7.621-2.546,4.421-6.054-1.86-2.038-7.355-2.306-9.86-2.679-6.557-.977-13.952-1.661-20.565-.742-2.772.386-6.038,1.847-6.16,4.643a4.566,4.566,0,0,0,2.6,3.977,12,12,0,0,0,4.853,1.091,166.367,166.367,0,0,0,24.713-.235" transform="translate(-496.542 -751.118)" fill="#ffb6a3" stroke="rgba(0,0,0,0)" stroke-width="1"/>
      <path id="패스_19043" data-name="패스 19043" d="M914.439,908.435q4.393,4.353,8.4,9.076a21.928,21.928,0,0,1,4.3,6.669c.494,1.406.653,3.145-.369,4.23a3.362,3.362,0,0,1-3.449.658,9.579,9.579,0,0,1-3.1-1.983q-3.055-2.581-6.008-5.28c-3.405-3.114-6.813-6.481-8.87-10.674-1.466-2.988-2.973-10.073,2.73-7.519a22.516,22.516,0,0,1,6.375,4.824" transform="translate(-546.505 -725.13)" fill="#ffb6a3" stroke="rgba(0,0,0,0)" stroke-width="1"/>
      <path id="패스_19056" data-name="패스 19056" d="M797.96,734.242c2.118.644,4.4.059,6.5-.63A68.147,68.147,0,0,0,827.6,720.586a29.459,29.459,0,0,0,6.338,11.927c.948,1.068,2.594,2.11,3.654,1.153a2.628,2.628,0,0,0,.628-1.989c.023-4.863-2.4-9.361-4.755-13.616a39.78,39.78,0,0,0,6.625,9.943,2.027,2.027,0,0,0,1.242.8c1.059.077,1.512-1.33,1.479-2.392-.167-5.318-3.379-9.993-6.47-14.324a20.469,20.469,0,0,0,6.585,4.757,7.433,7.433,0,0,0,2.976.99,2.735,2.735,0,0,0,2.635-1.388c.748-1.639-.84-3.337-2.261-4.443l-10.107-7.862a50.19,50.19,0,0,0,9.71-.771c1.45-.185,3.106-.585,3.745-1.9a3.185,3.185,0,0,0-1.391-3.81,9.075,9.075,0,0,0-4.241-1.115c-11.083-1.006-22.177.312-33.305.312-1.123,0-22.278,14.082-22.278,14.082Z" transform="translate(-474.643 -596.493)" fill="#ffb6a3" stroke="rgba(0,0,0,0)" stroke-width="1"/>
      <path id="패스_19057" data-name="패스 19057" d="M522.208,1518.38l20.038-57.782-40.236-2.593-17.673,55.338Z" transform="translate(-285.586 -1070.163)" fill="#ffb6a3" stroke="rgba(0,0,0,0)" stroke-width="1"/>
      <path id="패스_19058" data-name="패스 19058" d="M766.674,1445.069l17.512,59.978,37.976-10.615-15.972-56.716Z" transform="translate(-461.129 -1057.548)" fill="#ffb6a3" stroke="rgba(0,0,0,0)" stroke-width="1"/>
      <path id="패스_19074" data-name="패스 19074" d="M757,1261.937c-6.384-16.142-19.2-45.946-25.439-62.2L706.7,1134.721c-2.941-7.693-5.915-15.45-10.465-22.353s-10.857-12.979-18.809-15.91c-10.572-3.9-21.969,8.51-27.555,18.194s-6.733,21.2-5.349,32.067c3.191,25.049,16.909,50.113,26.23,73.432,7.473,18.7,8.725,23.862,16.5,42.438Z" transform="translate(-384.851 -844.915)" fill="#a47768" stroke="rgba(0,0,0,0)" stroke-width="1"/>
      <path id="패스_19075" data-name="패스 19075" d="M414.407,1031.385c-14.128-10.921-31.658-12.728-48.714-14.626q-28.111-3.127-56.267-5.791c.384-3.7,1.091-7.4.39-11.1-14.538,1.846-87.518-1.841-87.709-1.474-4.833,9.28-9.936,19.833-12.17,30.552-1.03,3.057-1.8,6.048-2.374,8.555a42.793,42.793,0,0,0,7.8,35.012c15.326,19.759,41.9,15.513,63.326,14.93,21.763-.593,43.532-.98,65.292-1.676-6.224,14.224-11.387,29.161-17.133,42.7-11.349,26.743-19.046,46.611-29.821,73.59h67.635c7.295-17.234,12.312-28.609,19.865-45.775l29.31-66.387c3.468-7.855,9.42-28.025,9.612-29.97,3.28-10.535.751-20.975-9.039-28.542" transform="translate(-112.884 -784.384)" fill="#a47768" stroke="rgba(0,0,0,0)" stroke-width="1"/>
      <path id="패스_19076" data-name="패스 19076" d="M693.316,1196.607l23.152-52.438c3.469-7.855,9.42-28.024,9.612-29.969,3.281-10.535.751-20.975-9.038-28.542" transform="translate(-415.518 -838.657)" fill="none" stroke="#231f20" stroke-linecap="round" stroke-linejoin="round" stroke-width="2"/>
      <path id="패스_19077" data-name="패스 19077" d="M939.5,1012.155H752.724l8.149-25.669,167.241-.906c2.709.906,11.389,26.574,11.389,26.574" transform="translate(-452.455 -776.434)" fill="#ff9510" stroke="rgba(0,0,0,0)" stroke-width="1"/>
      <rect id="사각형_15339" data-name="사각형 15339" width="88.932" height="4.932" transform="translate(320.728 204.363)" fill="#231f20"/>
      <path id="패스_19096" data-name="패스 19096" d="M1051.4,767.359l-18.152,82.69h-5.281l18.152-82.69Z" transform="translate(-623.585 -640.755)" fill="#231f20"/>
      <path id="패스_19101" data-name="패스 19101" d="M1024.514,1342.959a7.2,7.2,0,1,1-7.2-7.2,7.2,7.2,0,0,1,7.2,7.2" transform="translate(-591.937 -1044.866)" fill="#c8d1f4" stroke="rgba(0,0,0,0)" stroke-width="1"/>
      <path id="패스_19102" data-name="패스 19102" d="M1314.726,893.226a3.541,3.541,0,1,1-3.541-3.541,3.541,3.541,0,0,1,3.541,3.541" transform="translate(-781.192 -734.458)" fill="#c8d1f4" stroke="rgba(0,0,0,0)" stroke-width="1"/>
      <path id="패스_19104" data-name="패스 19104" d="M302.641,1354.863a10.477,10.477,0,1,1,0-14.817,10.477,10.477,0,0,1,0,14.817" transform="translate(-284.755 -979.026)" fill="#c8d1f4" stroke="rgba(0,0,0,0)" stroke-width="1"/>
      <rect id="사각형_15340" data-name="사각형 15340" width="81.996" height="58.65" transform="matrix(0.363, -0.932, 0.932, 0.363, 319.953, 146.157)" fill="#fff" stroke="rgba(0,0,0,0)" stroke-width="1"/>
      <path id="패스_19112" data-name="패스 19112" d="M795.862,688.626l.374-.386a6.288,6.288,0,0,1,2.009-1.569,6.09,6.09,0,0,1,3.265-.1c4.861.78,9.645,1.973,14.422,3.164,3.577.892,7.292,1.791,10.473,3.731,2.61,1.592,4.936,5.439.92,7-5.412,2.1-11.826-2.832-17.135-.974a11.319,11.319,0,0,0-3.911,2.7c-2.517,2.391-4.841,5-7.7,7a24.905,24.905,0,0,1-8.3,3.283c-2.012.49-8.464.6-9.326-1.936a2.929,2.929,0,0,1,.309-2.028c3.42-8.12,8.638-13.746,14.6-19.893" transform="translate(-469.953 -590.418)" fill="#ffb6a3" stroke="rgba(0,0,0,0)" stroke-width="1"/>
      <path id="패스_19131" data-name="패스 19131" d="M903.27,988.588l127.556,16.7-6.4-17.316Z" transform="translate(-546.057 -777.922)" fill="#111011" stroke="rgba(0,0,0,0)" stroke-width="1"/>
      <line id="선_94" data-name="선 94" x1="61.852" y1="2.507" transform="translate(138.5 224.438)" fill="none" stroke="#231f20" stroke-linejoin="round" stroke-width="2"/>
      <line id="선_95" data-name="선 95" x2="21.522" transform="translate(230.925 301.773)" fill="none" stroke="#231f20" stroke-linejoin="round" stroke-width="2"/>
      <path id="패스_19137" data-name="패스 19137" d="M765.4,1568.7l1.049,3.685c-4.459,5.981-7.719,12.091-7.172,18.613l-2.663,6.6a3.689,3.689,0,0,0,3.421,5.068h28.722c3.434-5.439,13.372-5.012,28.393,0h43.262a4.981,4.981,0,0,0,4.85-6.116l-.977-4.177-2.807-9.832a9.636,9.636,0,0,0-7.185-6.764l-25.843-5.714-7.785-11.378a5.646,5.646,0,0,0-8.285-1.139l-16.669,13.966-25.415-7.641a3.918,3.918,0,0,0-4.9,4.826" transform="translate(-454.705 -1131.237)" stroke="rgba(0,0,0,0)" stroke-width="1"/>
      <line id="선_96" data-name="선 96" x2="104.035" transform="translate(305.546 461.144)" fill="none" stroke="#fff" stroke-linecap="round" stroke-linejoin="round" stroke-width="3"/>
      <path id="패스_19138" data-name="패스 19138" d="M453.893,1568.7l1.05,3.685c-4.459,5.981-7.719,12.091-7.173,18.613l-2.663,6.6a3.689,3.689,0,0,0,3.421,5.068h28.723c3.434-5.439,13.372-5.012,28.393,0h43.262a4.981,4.981,0,0,0,4.85-6.116l-.977-4.177-2.807-9.832a9.637,9.637,0,0,0-7.186-6.764l-25.843-5.714-7.785-11.378a5.646,5.646,0,0,0-8.285-1.139L484.2,1571.52l-25.415-7.641a3.918,3.918,0,0,0-4.9,4.826" transform="translate(-261.027 -1131.237)" stroke="rgba(0,0,0,0)" stroke-width="1"/>
      <line id="선_97" data-name="선 97" x2="104.035" transform="translate(187.718 461.144)" fill="none" stroke="#fff" stroke-linecap="round" stroke-linejoin="round" stroke-width="3"/>
      <path id="패스_19141" data-name="패스 19141" d="M910.536,903.065c7.172,9.483,15.042,19.393,15.25,24.612" transform="translate(-550.574 -725.13)" fill="none" stroke="#231f20" stroke-linecap="round" stroke-linejoin="round" stroke-width="2"/>
      <line id="선_98" data-name="선 98" x1="12.145" y1="11.216" transform="translate(354.21 187.778)" fill="none" stroke="#231f20" stroke-linecap="round" stroke-linejoin="round" stroke-width="2"/>
      <path id="패스_19142" data-name="패스 19142" d="M839.839,944.217c7.049-1.12,14.023-8.839,20.989-17.275" transform="translate(-506.619 -739.976)" fill="none" stroke="#231f20" stroke-linecap="round" stroke-linejoin="round" stroke-width="2"/>
      <path id="패스_19143" data-name="패스 19143" d="M905.726,901.615c2.961,1.48,6.072,3.275,7.394,6.31a2.525,2.525,0,0,1,0,2.5,2.221,2.221,0,0,1-.849.627c-1.914.888-4.158.3-6.167-.348a90.1,90.1,0,0,1-22.4-10.4,10.169,10.169,0,0,1-3.8-3.756c-.935-1.95.039-4.163,2.288-4.156,2.344.007,5.388,1.638,7.576,2.417a143.02,143.02,0,0,1,15.966,6.8" transform="translate(-531.304 -718.495)" fill="#ffb6a3" stroke="rgba(0,0,0,0)" stroke-width="1"/>
      <path id="패스_19144" data-name="패스 19144" d="M919.1,926.756c-1.914.888-4.158.3-6.166-.347-7.862-2.534-14.839-4.431-22.405-8.756" transform="translate(-538.138 -734.2)" fill="none" stroke="#231f20" stroke-linecap="round" stroke-linejoin="round" stroke-width="2"/>
      <path id="패스_19139" data-name="패스 19139" d="M934.722,982.44H726.065a1.11,1.11,0,0,0,0,2.214H934.722a1.11,1.11,0,0,0,0-2.214" transform="translate(-435.244 -773.595)" fill="#111011" stroke="rgba(0,0,0,0)" stroke-width="1"/>
      <line id="선_90" data-name="선 90" x1="11.643" y2="6.125" transform="translate(224.192 145.826)" fill="none" stroke="#98918f" stroke-linejoin="round" stroke-width="2"/>
      <path id="패스_35218" data-name="패스 35218" d="M2052.533,4682.37l-42.239,166.665" transform="translate(-1957.131 -4378.474)" fill="none" stroke="#000" stroke-width="2"/>
      <path id="패스_19086" data-name="패스 19086" d="M470.21,517.407c-.741.457-3.788.179-4.5.682-.518.363-.658,5.621-.9,6.643a26.384,26.384,0,0,1-2.942,7.722c-3.061,4.913-8.153,7.434-13.868,7.876a39.159,39.159,0,0,1-12.706-1.514,33.485,33.485,0,0,1-9.686-3.953,27.861,27.861,0,0,1,14.411-51.822c10.894,0,22.032,6.229,24.247,17.493a56.523,56.523,0,0,1,.892,10.128q.011.54.011,1.079c.007.662.011,1.327.014,1.993a20.753,20.753,0,0,1,4.522.141c.014,0,.029,0,.043.007a1.945,1.945,0,0,1,1.694,1.4,2.228,2.228,0,0,1-1.233,2.125" transform="translate(-240.533 -469.737)" fill="#ffb6a3" stroke="rgba(0,0,0,0)" stroke-width="1"/>
      <path id="패스_19091" data-name="패스 19091" d="M433.717,507.237a8.577,8.577,0,0,0,3.913-1.9,7.5,7.5,0,0,0,1.383-2.669L443,491.518c.247-.673,3.584,1.83,3.928,2.046a18.851,18.851,0,0,0,5.62,2.105,9.974,9.974,0,0,0-2-6.526c-9.846-14.08-32.56-13.152-45.039-3.654a14.908,14.908,0,0,0-4.688,5.287,9.124,9.124,0,0,1-.8,1.564,9.735,9.735,0,0,1-1.86,1.629c-2.467,2.009-3.6,5.251-4.02,8.4a25.937,25.937,0,0,0,2.3,14.492c2.077,4.365,5.066,7.082,9.156,9.623,1.511.939,2.965,1.977,4.439,2.973a1.2,1.2,0,0,1,.348.309,1.318,1.318,0,0,1,.155.562,12.11,12.11,0,0,0,.4,1.7,1.931,1.931,0,0,0,.486.957,1.426,1.426,0,0,0,1.61.008,13.986,13.986,0,0,0,1.341-1.073c.778-.583,1.967-.614,2.876-.994,1.087-.453,2.159-.944,3.2-1.5a23.146,23.146,0,0,0,5.646-4.149c2.681-2.751,3.008-6.823,3.278-10.452.231-3.1.29-6.148,3.642-7.357.231-.083.466-.161.7-.236" transform="translate(-229.369 -466.647)" stroke="rgba(0,0,0,0)" stroke-width="1"/>
      <path id="패스_19092" data-name="패스 19092" d="M469.046,549.414a10.658,10.658,0,1,1-10.658-10.658,10.658,10.658,0,0,1,10.658,10.658" transform="translate(-262.826 -504.145)" fill="#ffb6a3" stroke="rgba(0,0,0,0)" stroke-width="1"/>
      <path id="패스_19093" data-name="패스 19093" d="M454.881,553.86a7.953,7.953,0,0,1,15.906,0" transform="translate(-267.272 -508.591)" fill="none" stroke="#231f20" stroke-linecap="round" stroke-linejoin="round" stroke-width="2"/>
      <path id="패스_19094" data-name="패스 19094" d="M367.231,463.9a23.547,23.547,0,0,0-3.955-7.99c-6.613-7.574-23.481-13.967-29.044-2.046-7.378,15.81,11.9,28.715,25.656,30.1,10.138,1.021,10.151-11.051,7.344-20.064" transform="translate(-191.245 -447.254)" stroke="rgba(0,0,0,0)" stroke-width="1"/>
      <path id="패스_19135" data-name="패스 19135" d="M527.414,576.134a12.5,12.5,0,0,0,9.147,2.45" transform="translate(-312.369 -527.385)" fill="none" stroke="#231f20" stroke-linecap="round" stroke-linejoin="round" stroke-width="2"/>
      <path id="패스_19136" data-name="패스 19136" d="M478.039,546.151c.3,4.567,1.036,8.872,4.149,11.728" transform="translate(-281.67 -508.743)" fill="none" stroke="#231f20" stroke-linecap="round" stroke-linejoin="round" stroke-width="2"/>
      <path id="패스_19088" data-name="패스 19088" d="M343.236,724.331S343.117,850.885,341.2,860.5l-139.324,2.384c-1.552-5.2,41.46-114.156,43.072-119.047,2.224-6.747,4.318-13.536,6.47-20.305,4.19-13.177,8.545-26.326,14.178-38.97,4.1-9.207,8.646-18.377,14.848-26.375,6.006-7.746,10.809-9.953,18.736-14.7l3.181-12.546a3.921,3.921,0,0,1,4.53-2.889l32.416,6.13a3.921,3.921,0,0,1,3.063,4.852l-3.582,13.6a183.605,183.605,0,0,0,9.824,33.718c7.2,11.649,7.046,29.6-5.373,37.991" transform="translate(-130.652 -554.094)" fill="#fff"/>
      <g id="그룹_795" data-name="그룹 795" transform="translate(168.261 109.473)">
        <path id="패스_18848" data-name="패스 18848" d="M1094.279,1101.836c-6.379,3.063-11.266,3.755-15.348,1.818-4.039-1.916-7.166-6.383-10.065-13.659l1.495-.593c2.742,6.882,5.625,11.072,9.262,12.8,3.593,1.7,8.045,1.023,13.963-1.818Z" transform="translate(-1065.685 -1066.019)" fill="#e6eaf4"/>
        <path id="패스_18849" data-name="패스 18849" d="M1065.446,1042.649c6.743-2.144,10.775-4.99,12.419-9.2,1.626-4.164.841-9.56-2.037-16.844l-1.495.593c2.722,6.89,3.5,11.917,2.031,15.666-1.447,3.7-5.155,6.26-11.412,8.249Z" transform="translate(-1049.648 -1001.756)" fill="#e6eaf4"/>
        <path id="패스_18850" data-name="패스 18850" d="M1092.456,890.288c8.3-2.187,14.323,5.305,17.472,12.26a5.611,5.611,0,0,1,.792,2.423,1.475,1.475,0,0,1-2.776.578c-2.268-6.352-8.358-15.448-16.152-12.283-.043.017-.057.024-.1.037a7.337,7.337,0,0,0-3.585,3.423c-1.4,2.61-2.347,7.555,1.12,16.292a1.36,1.36,0,0,1-.606,1.613l-.028.018h0l-.03.018h0l-.03.017h0l-.029.016,0,0,0,0c-.031.017-.064.033-.1.048l0,0-.02.009h0l0,0h-.01l0,0h-.031a1.409,1.409,0,0,1-1.869-.666c-3.085-7.776-3.387-14-.9-18.508a10.64,10.64,0,0,1,6.9-5.322" transform="translate(-1083.894 -889.901)" fill="#7e4f40"/>
        <path id="패스_18851" data-name="패스 18851" d="M1169.7,1224.183a1.285,1.285,0,0,1,.812-1.625l2.346-.563c.767-.058.87.319,1.049.786.17.511.295.885-.413,1.317l-2.169.9a1.285,1.285,0,0,1-1.625-.813" transform="translate(-1157.254 -1183.065)" fill="#a47768"/>
        <path id="패스_18852" data-name="패스 18852" d="M1049.917,1171.648a1.285,1.285,0,0,0-1.705-.626l-2.094,1.2c-.6.483-.415.829-.224,1.291.226.489.392.846,1.2.676l2.194-.833a1.285,1.285,0,0,0,.625-1.705" transform="translate(-1018.729 -1137.967)" fill="#a47768"/>
      </g>
      <line id="선_91" data-name="선 91" x2="39.608" y2="9.142" transform="translate(168.524 89.386)" fill="none" stroke="#98918f" stroke-linejoin="round" stroke-width="2"/>
      <path id="패스_19110" data-name="패스 19110" d="M581.694,765.017c-3.016-.527-6.44-.387-9.823-.851-10.7-1.468-54.364-7.991-54.364-7.991L491.921,717.4c-4.837-7.776-9.959-15.33-17.757-20.447" transform="translate(-279.261 -596.977)" fill="none" stroke="#98918f" stroke-linejoin="round" stroke-width="2"/>
      <path id="패스_19111" data-name="패스 19111" d="M379.422,724.472c-1.955,8.5-.825,17.5,1.9,25.692,6.707,20.138,19.731,35.782,32.4,52.408,3.127,4.1,6.365,8.3,10.282,11.591" transform="translate(-219.745 -614.09)" fill="none" stroke="#98918f" stroke-linejoin="round" stroke-width="2"/>
      <line id="선_93" data-name="선 93" x1="5.693" y1="21.89" transform="translate(206.967 98.529)" fill="none" stroke="#98918f" stroke-linejoin="round" stroke-width="2"/>
      <line id="선_92" data-name="선 92" x1="12.219" y2="63.016" transform="translate(157.137 153.515)" fill="none" stroke="#98918f" stroke-linejoin="round" stroke-width="2"/>
      <path id="패스_35496" data-name="패스 35496" d="M764.032,640.576a69.986,69.986,0,0,1-3.136-14.021c-.541-4.7-1.333-10.556-.036-14.93,1.245-4.2,3.745-7.7,8.268-9.376,1.209-.447.512-2.913-.879-2.4-5.405,2-8.375,6.124-9.837,11.055-1.41,4.756-.628,10.963-.054,15.939a72.9,72.9,0,0,0,3.276,14.611Z" transform="translate(-588.192 -528.272)" fill="#7e4f40"/>
      <path id="패스_35286" data-name="패스 35286" d="M287.767,63.722c0,1.01-.539,1.829-1.2,1.829s-1.2-.819-1.2-1.829.539-1.829,1.2-1.829,1.2.819,1.2,1.829" transform="translate(-68.149 -25.121)"/>
      <path id="패스_35526" data-name="패스 35526" d="M1318.268,895a5.312,5.312,0,1,1-5.312-5.312,5.311,5.311,0,0,1,5.312,5.312" transform="translate(-994.483 -870.982)" fill="#c8d1f4" stroke="rgba(0,0,0,0)" stroke-width="1"/>
    </g>
    <g id="그래프" transform="matrix(0.966, 0.259, -0.259, 0.966, 683.122, 294.719)">
      <path id="패스_35556" data-name="패스 35556" d="M126.868,82.969H9.829A9.828,9.828,0,0,1,0,73.14V9.829A9.828,9.828,0,0,1,9.829,0h117.04A9.829,9.829,0,0,1,136.7,9.829V73.14a9.829,9.829,0,0,1-9.829,9.829" transform="translate(0 0)" fill="#fff"/>
      <path id="패스_35557" data-name="패스 35557" d="M0,58.63V9.362A9.361,9.361,0,0,1,9.362,0h103.56a9.362,9.362,0,0,1,9.363,9.362V58.63a9.362,9.362,0,0,1-9.363,9.362H9.362A9.362,9.362,0,0,1,0,58.63" transform="translate(6.947 7.204)" fill="#d9d1c4"/>
      <g id="그룹_922" data-name="그룹 922" transform="translate(6.947 7.204)" opacity="0.16">
        <line id="선_129" data-name="선 129" x2="122.285" transform="translate(0 6.677)" fill="none" stroke="#fff" stroke-miterlimit="10" stroke-width="1"/>
        <line id="선_130" data-name="선 130" x2="122.285" transform="translate(0 15.784)" fill="none" stroke="#fff" stroke-miterlimit="10" stroke-width="1"/>
        <line id="선_131" data-name="선 131" x2="122.285" transform="translate(0 24.89)" fill="none" stroke="#fff" stroke-miterlimit="10" stroke-width="1"/>
        <line id="선_132" data-name="선 132" x2="122.285" transform="translate(0 33.996)" fill="none" stroke="#fff" stroke-miterlimit="10" stroke-width="1"/>
        <line id="선_133" data-name="선 133" x2="122.285" transform="translate(0 43.102)" fill="none" stroke="#fff" stroke-miterlimit="10" stroke-width="1"/>
        <line id="선_134" data-name="선 134" x2="122.285" transform="translate(0 52.209)" fill="none" stroke="#fff" stroke-miterlimit="10" stroke-width="1"/>
        <line id="선_135" data-name="선 135" x2="122.285" transform="translate(0 61.315)" fill="none" stroke="#fff" stroke-miterlimit="10" stroke-width="1"/>
        <line id="선_136" data-name="선 136" y2="67.993" transform="translate(9.563 0)" fill="none" stroke="#fff" stroke-miterlimit="10" stroke-width="1"/>
        <line id="선_137" data-name="선 137" y2="67.993" transform="translate(18.941 0)" fill="none" stroke="#fff" stroke-miterlimit="10" stroke-width="1"/>
        <line id="선_138" data-name="선 138" y2="67.993" transform="translate(28.319 0)" fill="none" stroke="#fff" stroke-miterlimit="10" stroke-width="1"/>
        <line id="선_139" data-name="선 139" y2="67.993" transform="translate(37.697 0)" fill="none" stroke="#fff" stroke-miterlimit="10" stroke-width="1"/>
        <line id="선_140" data-name="선 140" y2="67.993" transform="translate(47.075 0)" fill="none" stroke="#fff" stroke-miterlimit="10" stroke-width="1"/>
        <line id="선_141" data-name="선 141" y2="67.993" transform="translate(56.453 0)" fill="none" stroke="#fff" stroke-miterlimit="10" stroke-width="1"/>
        <line id="선_142" data-name="선 142" y2="67.993" transform="translate(65.831 0)" fill="none" stroke="#fff" stroke-miterlimit="10" stroke-width="1"/>
        <line id="선_143" data-name="선 143" y2="67.993" transform="translate(75.209 0)" fill="none" stroke="#fff" stroke-miterlimit="10" stroke-width="1"/>
        <line id="선_144" data-name="선 144" y2="67.993" transform="translate(84.587 0)" fill="none" stroke="#fff" stroke-miterlimit="10" stroke-width="1"/>
        <line id="선_145" data-name="선 145" y2="67.993" transform="translate(93.965 0)" fill="none" stroke="#fff" stroke-miterlimit="10" stroke-width="1"/>
        <line id="선_146" data-name="선 146" y2="67.993" transform="translate(103.344 0)" fill="none" stroke="#fff" stroke-miterlimit="10" stroke-width="1"/>
        <line id="선_147" data-name="선 147" y2="67.993" transform="translate(112.722 0)" fill="none" stroke="#fff" stroke-miterlimit="10" stroke-width="1"/>
      </g>
      <path id="패스_35558" data-name="패스 35558" d="M0,27.512l23.09.022,5.826-12.755,6.111,31.829L44.4,2.842l6.253,35.523,2.415-13.641,1.421,6.82L61.6,0,66,48.88l4.973-27.566L74.67,33.677l3.837-17.336,1.848,11.193,25.088.205" transform="translate(15.276 16.76)" fill="none" stroke="#fff" stroke-linecap="round" stroke-linejoin="round" stroke-width="2"/>
    </g>
    <g id="알약" transform="matrix(0.995, -0.105, 0.105, 0.995, 755.951, 388.043)">
      <path id="패스_35559" data-name="패스 35559" d="M12.571,0l-9.8,9.8A9.464,9.464,0,1,0,16.156,23.184l9.8-9.8Z" transform="translate(15.72 12.571)" fill="#fff"/>
      <path id="패스_35560" data-name="패스 35560" d="M13.384,25.955l9.8-9.8A9.464,9.464,0,1,0,9.8,2.772L0,12.571Z" transform="translate(28.291 0)" fill="#ef9c68"/>
      <path id="패스_35561" data-name="패스 35561" d="M23.322,0H9.464a9.464,9.464,0,0,0,0,18.929H23.322Z" transform="translate(0 31.414)" fill="#fff"/>
      <path id="패스_35562" data-name="패스 35562" d="M0,18.929H13.858A9.464,9.464,0,0,0,13.858,0H0Z" transform="translate(23.322 31.413)" fill="#ffdca5"/>
    </g>
  </g>
</svg>
