<svg xmlns="http://www.w3.org/2000/svg" width="200.121" height="27.119" viewBox="0 0 200.121 27.119">
  <g id="Logo" transform="translate(0 20)">
    <path id="패스_18864" data-name="패스 18864" d="M18.937,27.12l-3.96-3.181a21.679,21.679,0,0,1,3.408-4.447,32.738,32.738,0,0,1,6.155-5.213c.9-.7,3.558-2.284,4.313-3.891a4.234,4.234,0,0,0-.369-4.19,4.607,4.607,0,0,0-4.4-1.388C22.01,5.3,20.754,7.076,19.57,10.4a16.05,16.05,0,0,1-2.931,5.575,10.1,10.1,0,0,1-4.555,2.9,9.408,9.408,0,0,1-4.653.188,9.027,9.027,0,0,1-4.112-2.081A10.32,10.32,0,0,1,0,9.643,9.233,9.233,0,0,1,3.04,2.678,9.413,9.413,0,0,1,7.731.161a8.7,8.7,0,0,1,4.215.248A10.9,10.9,0,0,1,15.876,2.59L12.7,6.048l.014.013a6.317,6.317,0,0,0-2.252-1.193A4.118,4.118,0,0,0,6.267,6.091,4.593,4.593,0,0,0,4.7,9.577a5.641,5.641,0,0,0,1.75,3.9,4.53,4.53,0,0,0,4.295.9c1.177-.351,3.006-1.583,4.292-5.192.982-2.755,1.729-4.532,3.156-6.076A9.536,9.536,0,0,1,23.012.237a9.3,9.3,0,0,1,9,2.857A8.182,8.182,0,0,1,34.136,9.15a8.839,8.839,0,0,1-3.19,5.961c-1.787,1.635-4.176,3.006-6.767,5.55a26.782,26.782,0,0,0-5.242,6.459" transform="translate(0 -20)" fill="#6c3d31"/>
    <path id="패스_18865" data-name="패스 18865" d="M349.529,51.981c0-5.029,3.366-7.908,7.2-7.908a6.427,6.427,0,0,1,4.583,1.967L359.4,48.352a3.742,3.742,0,0,0-2.616-1.176c-1.946,0-3.549,1.744-3.549,4.684,0,3,1.379,4.745,3.508,4.745a3.922,3.922,0,0,0,2.879-1.379l1.906,2.271a6.278,6.278,0,0,1-4.927,2.231c-3.833,0-7.077-2.636-7.077-7.746" transform="translate(-304.066 -58.34)" fill="#6c3d31"/>
    <path id="패스_18866" data-name="패스 18866" d="M474.367,57.875h-4.461l-.872,3.468h-3.691l4.684-15.087h4.339l4.684,15.087h-3.812Zm-.689-2.8-.324-1.277c-.406-1.5-.791-3.305-1.2-4.847h-.081c-.365,1.582-.771,3.346-1.156,4.847l-.324,1.277Z" transform="translate(-404.816 -60.24)" fill="#6c3d31"/>
    <path id="패스_18867" data-name="패스 18867" d="M612.225,61.343l-2.778-5.313H607.7v5.313h-3.63V46.256h5.536c3.224,0,5.9,1.095,5.9,4.745a4.466,4.466,0,0,1-2.6,4.36l3.366,5.982ZM607.7,53.171h1.622c1.724,0,2.636-.75,2.636-2.17s-.913-1.886-2.636-1.886H607.7Z" transform="translate(-525.501 -60.24)" fill="#6c3d31"/>
    <path id="패스_18868" data-name="패스 18868" d="M735.635,46.256h9.571v3h-5.941v2.8h5.049V55.1h-5.049v3.2h6.164v3.042h-9.794Z" transform="translate(-639.951 -60.239)" fill="#6c3d31"/>
    <path id="패스_18869" data-name="패스 18869" d="M855.035,46.256h3.691l3.751,7.219,1.48,3.346h.1a47.626,47.626,0,0,1-.486-5.576V46.256h3.447V61.343h-3.691l-3.731-7.28-1.48-3.305h-.1c.162,1.683.466,3.751.466,5.576v5.009h-3.447Z" transform="translate(-743.821 -60.24)" fill="#6c3d31"/>
    <path id="패스_18870" data-name="패스 18870" d="M989.7,57.875h-4.461l-.872,3.468h-3.69l4.684-15.087H989.7l4.684,15.087H990.57Zm-.689-2.8-.324-1.277c-.406-1.5-.791-3.305-1.2-4.847h-.081c-.365,1.582-.771,3.346-1.156,4.847l-.324,1.277Z" transform="translate(-853.118 -60.24)" fill="#6c3d31"/>
    <path id="패스_18871" data-name="패스 18871" d="M1101.186,49.257h-4.076v-3h11.8v3h-4.1V61.342h-3.63Z" transform="translate(-954.409 -60.239)" fill="#6c3d31"/>
    <rect id="사각형_15205" data-name="사각형 15205" width="3.63" height="15.087" transform="translate(159.59 -13.983)" fill="#6c3d31"/>
    <path id="패스_18872" data-name="패스 18872" d="M1297.4,51.819c0-4.948,2.8-7.746,6.915-7.746s6.915,2.819,6.915,7.746c0,4.948-2.8,7.908-6.915,7.908s-6.915-2.961-6.915-7.908m10.139,0c0-2.92-1.237-4.643-3.224-4.643s-3.2,1.724-3.2,4.643c0,2.94,1.217,4.786,3.2,4.786s3.224-1.845,3.224-4.786" transform="translate(-1128.65 -58.34)" fill="#6c3d31"/>
    <path id="패스_18873" data-name="패스 18873" d="M1446.425,46.256h3.691l3.751,7.219,1.48,3.346h.1a47.653,47.653,0,0,1-.486-5.576V46.256h3.447V61.343h-3.691l-3.731-7.28-1.48-3.305h-.1c.162,1.683.466,3.751.466,5.576v5.009h-3.447Z" transform="translate(-1258.289 -60.24)" fill="#6c3d31"/>
  </g>
</svg>
