<svg xmlns="http://www.w3.org/2000/svg" width="160" height="29.776" viewBox="0 0 160 29.776">
  <g id="logo" transform="translate(8195 12378)">
    <path id="패스_8" data-name="패스 8" d="M20.792,29.776l-4.348-3.492A23.8,23.8,0,0,1,20.186,21.4c3.048-3.369,4.75-4.166,6.758-5.724.993-.771,3.906-2.508,4.735-4.272a4.649,4.649,0,0,0-.405-4.6,5.059,5.059,0,0,0-4.832-1.525c-2.276.533-3.654,2.488-4.954,6.137a17.618,17.618,0,0,1-3.218,6.121,11.09,11.09,0,0,1-5,3.185,10.331,10.331,0,0,1-5.109.206,9.91,9.91,0,0,1-4.515-2.285A11.331,11.331,0,0,1,0,10.587,10.137,10.137,0,0,1,3.338,2.939,10.336,10.336,0,0,1,8.488.176a9.55,9.55,0,0,1,4.628.272,11.969,11.969,0,0,1,4.316,2.395l-3.489,3.8.015.014a6.937,6.937,0,0,0-2.472-1.31A4.521,4.521,0,0,0,6.881,6.687a5.042,5.042,0,0,0-1.723,3.828A6.193,6.193,0,0,0,7.079,14.8a4.974,4.974,0,0,0,4.716.983c1.292-.385,3.3-1.738,4.712-5.7,1.078-3.025,1.9-4.976,3.465-6.672A10.471,10.471,0,0,1,25.266.26,10.208,10.208,0,0,1,35.144,3.4a8.983,8.983,0,0,1,2.337,6.649,9.705,9.705,0,0,1-3.5,6.545c-1.962,1.795-4.585,3.3-7.43,6.094a29.4,29.4,0,0,0-5.755,7.092" transform="translate(-8195 -12378)" fill="#7f5041"/>
    <path id="패스_9" data-name="패스 9" d="M351.035,25.924a20.329,20.329,0,0,1-.466,4.907h2.061v-5.84h3.337V44.2H352.63V33.849h-3.067a13.782,13.782,0,0,1-6.7,6.747l-1.987-2.724a10.821,10.821,0,0,0,5.251-4.343l-4.294.417-.515-2.993,5.938-.319a13.935,13.935,0,0,0,.245-1.766H342.03V25.924ZM357.1,24.7h3.435V45.16H357.1Z" transform="translate(-8485.997 -12399.083)" fill="#7f5041"/>
    <path id="패스_10" data-name="패스 10" d="M503.993,25.875a6,6,0,0,1,6.158,5.03h3.042V24.7h3.484V45.135h-3.484V33.8h-3.042a5.935,5.935,0,0,1-6.158,4.956,6.046,6.046,0,0,1-6.33-6.4,6.106,6.106,0,0,1,6.33-6.477m0,9.765c1.595,0,2.846-1.3,2.846-3.337s-1.251-3.288-2.846-3.288c-1.644,0-2.846,1.251-2.846,3.288s1.2,3.337,2.846,3.337" transform="translate(-8619.842 -12399.083)" fill="#7f5041"/>
    <path id="패스_11" data-name="패스 11" d="M662.151,38.535a42.549,42.549,0,0,1-9.716.613V25.8h3.46V35.91a23.83,23.83,0,0,0,5.839-.442Zm1.423,5.692V32.671h-4.392V29.727h4.392V24.992h3.312V44.227Zm4.809-19.53h3.411V45.16h-3.411Z" transform="translate(-8751.967 -12399.083)" fill="#7f5041"/>
    <path id="패스_12" data-name="패스 12" d="M812.677,25.875a6.106,6.106,0,0,1,6.33,6.477,6.318,6.318,0,1,1-12.636,0,6.087,6.087,0,0,1,6.306-6.477m0,9.765c1.595,0,2.822-1.3,2.822-3.337s-1.227-3.288-2.822-3.288c-1.644,0-2.8,1.251-2.8,3.288s1.153,3.337,2.8,3.337M821.632,24.7h3.508V45.135h-3.508Z" transform="translate(-8883.377 -12399.083)" fill="#7f5041"/>
    <path id="패스_13" data-name="패스 13" d="M968.758,37.951a10.688,10.688,0,0,1-4.981-4.735,11.408,11.408,0,0,1-4.956,5.275l-2.036-2.6a9.053,9.053,0,0,0,5.079-7.8V25.315h3.729v2.723c0,3.19,2.4,6.478,4.956,7.238Zm-5.888,9.176v-8.1h3.509v5.152h10.4v2.944Zm9.986-6.379V34.222h-3.876V31.4h3.876V29.9h-3.876V27.057h3.876V24.53h3.484V40.748Z" transform="translate(-9011.781 -12398.94)" fill="#7f5041"/>
  </g>
</svg>
