<svg xmlns="http://www.w3.org/2000/svg" width="17.102" height="13.955" viewBox="0 0 17.102 13.955">
  <path id="패스_24218" data-name="패스 24218" d="M9.551,5.634a3.849,3.849,0,0,1,3.887,3.808,3.749,3.749,0,0,1-.187,1.112l2.379,2.33A8.99,8.99,0,0,0,18.1,9.434a9.2,9.2,0,0,0-8.551-5.7,9.387,9.387,0,0,0-2.83.434L8.408,5.817A4.072,4.072,0,0,1,9.551,5.634ZM2.329,3.09a.748.748,0,0,0,0,1.074l1.531,1.5A9.073,9.073,0,0,0,1,9.441a9.192,9.192,0,0,0,8.551,5.711,9.407,9.407,0,0,0,3.35-.624L15.016,16.6a.786.786,0,0,0,1.1,0,.748.748,0,0,0,0-1.074L3.433,3.09A.8.8,0,0,0,2.329,3.09ZM9.551,13.249A3.849,3.849,0,0,1,5.664,9.441a3.677,3.677,0,0,1,.381-1.63l1.22,1.2a2.564,2.564,0,0,0-.047.434,2.306,2.306,0,0,0,2.332,2.285,2.136,2.136,0,0,0,.443-.053l1.22,1.2A3.8,3.8,0,0,1,9.551,13.249ZM11.86,9.19A2.285,2.285,0,0,0,9.807,7.18Z" transform="translate(-1 -2.868)" fill="#6c3428"/>
</svg>
