<svg xmlns="http://www.w3.org/2000/svg" width="12.001" height="13.715" viewBox="0 0 12.001 13.715">
  <g id="그룹_23845" data-name="그룹 23845" transform="translate(14473.999 7733.456)">
    <path id="패스_35673" data-name="패스 35673" d="M10.335,2.611a2.191,2.191,0,0,1,3.037,0,2.047,2.047,0,0,1,0,2.952l-.535.52L9.8,3.132ZM9.164,3.75l-6,5.833a1.8,1.8,0,0,0-.5.861l-.657,2.684a.429.429,0,0,0,.12.411.459.459,0,0,0,.422.116l2.761-.639a1.879,1.879,0,0,0,.886-.481l6-5.833Z" transform="translate(-14475.999 -7735.456)" fill="#a47767"/>
    <rect id="사각형_15787" data-name="사각형 15787" width="12.001" height="1.061" transform="translate(-14473.999 -7720.802)" fill="#a47767"/>
  </g>
</svg>
