<svg xmlns="http://www.w3.org/2000/svg" width="16.013" height="14.406" viewBox="0 0 16.013 14.406">
  <path id="패스_35692" data-name="패스 35692" d="M14.806,14.605v1a1.8,1.8,0,0,1-1.8,1.8H7a1.8,1.8,0,0,1-1.8-1.8v-1H3.8A1.8,1.8,0,0,1,2,12.8v-4.8A2.6,2.6,0,0,1,4.6,5.4h.6V4.8A1.8,1.8,0,0,1,7,3h6a1.8,1.8,0,0,1,1.8,1.8v.6h.6A2.6,2.6,0,0,1,18.01,8l0,4.8a1.8,1.8,0,0,1-1.8,1.8ZM13,11.4H7a.6.6,0,0,0-.6.6v3.6a.6.6,0,0,0,.6.6h6a.6.6,0,0,0,.6-.6V12A.6.6,0,0,0,13,11.4Zm0-7.2H7a.6.6,0,0,0-.6.6v.6h7.206V4.8A.6.6,0,0,0,13.007,4.2Z" transform="translate(-2 -3)" fill="#a47767"/>
</svg>
